<?xml version="1.0" encoding="utf-8"?>
<!-- Generator: Adobe Illustrator 16.0.0, SVG Export Plug-In . SVG Version: 6.00 Build 0)  -->
<!DOCTYPE svg PUBLIC "-//W3C//DTD SVG 1.1//EN" "http://www.w3.org/Graphics/SVG/1.1/DTD/svg11.dtd">
<svg version="1.1" id="Layer_1" xmlns="http://www.w3.org/2000/svg" xmlns:xlink="http://www.w3.org/1999/xlink" x="0px" y="0px"
	 width="960px" height="960px" viewBox="0 0 960 960" enable-background="new 0 0 960 960" xml:space="preserve">
<g>
	<path fill="#E92C2D" d="M59.176,518.843C-4.837,443.61,2.637,380.063,4.557,368.974C-34.458,546.312,193.65,667.123,60.518,820.758
		c-5.774,6.725-11.859,13.038-18.102,19.242l266.436-0.204C323.35,717.429,94.758,560.588,59.176,518.843 M4.557,368.974
		l0.359-1.884L4.557,368.974"/>
	<path fill="#E92C2D" d="M512.662,23.474c0,0-232.134,56.133-293.792,175.924c0,0-43.617,89.006,38.094,113.271
		C256.963,312.669,178.811,147.991,512.662,23.474"/>
	<path fill="#234D9C" d="M235.708,569.878c0,0,250.596,112.819,298.755,269.91H960C889.791,523.971,193.605,453.23,165.077,292.854
		C138.704,144.763,382.59,33.063,568.329,0C371.524,22.225,240.375,87.311,184.084,120.779
		c-36.33,22.383-72.691,46.978-104.027,78.955C-132.118,416.493,235.708,569.878,235.708,569.878"/>
	<path fill="#231F20" d="M362.764,263.566c0-6.738,3.277-11.717,10.293-11.717h32.663c6.308,0,9.355,4.57,9.355,9.283
		c0,4.585-3.186,9.283-9.355,9.283h-23.201v19.631h21.617c6.43,0,9.601,4.586,9.601,9.283c0,4.553-3.309,9.265-9.601,9.265h-21.617
		v20.435h24.37c6.323,0,9.355,4.571,9.355,9.297c0,4.571-3.155,9.283-9.355,9.283h-33.971c-5.816,0-10.155-4.051-10.155-10.083
		V263.566z"/>
	<path fill="#231F20" d="M446.672,296.373l-21.34-29.589c-1.324-1.759-2.109-3.754-2.109-5.905c0-5.921,4.355-9.815,10.032-9.815
		c3.277,0,6.678,2.276,8.555,4.978l16.324,23.654l16.339-23.654c1.83-2.701,5.246-4.978,8.54-4.978
		c5.676,0,10.046,3.894,10.046,9.815c0,2.151-0.815,4.146-2.139,5.905l-21.324,29.589l26.079,35.764
		c1.046,1.476,2.246,4.036,2.246,6.846c0,5.657-4.246,9.425-10.017,9.425c-3.555,0-6.217-1.618-8.185-4.445l-21.585-30.641
		l-21.602,30.641c-1.986,2.828-4.6,4.445-8.17,4.445c-5.785,0-10-3.769-10-9.425c0-2.81,1.17-5.371,2.231-6.846L446.672,296.373z"/>
	<path fill="#231F20" d="M527.547,310.203h25.018l-12.23-38.983h-0.277L527.547,310.203z M526.102,261.404
		c2.245-6.172,7.354-11.151,14.094-11.151c6.969,0,11.861,4.696,14.076,11.151l25.833,73.159c0.8,2.135,1.046,4.037,1.046,4.963
		c0,5.263-4.2,8.889-9.076,8.889c-5.541,0-8.294-2.984-9.632-7.005l-3.939-12.626h-36.634l-3.938,12.501
		c-1.322,4.146-4.077,7.13-9.462,7.13c-5.309,0-9.771-4.035-9.771-9.423c0-2.153,0.662-3.754,0.923-4.429L526.102,261.404"/>
	<path fill="#231F20" d="M591.045,270.416h-14.339c-6.308,0-8.955-4.695-8.955-9.282c0-4.712,3.277-9.283,8.955-9.283h48.479
		c5.646,0,8.954,4.571,8.954,9.283c0,4.587-2.646,9.282-8.954,9.282h-14.385v67.521c0,6.691-4.186,10.476-9.863,10.476
		c-5.662,0-9.893-3.785-9.893-10.476V270.416z"/>
	<path d="M104.872,934.067v-35.88c0-1.2-0.341-2.16-1.02-2.88c-0.681-0.721-1.521-1.3-2.52-1.74c-1.001-0.438-2.121-0.738-3.36-0.9
		c-1.241-0.159-2.46-0.239-3.66-0.239c-1.121,0-2.3,0.08-3.54,0.239c-1.241,0.162-2.381,0.462-3.42,0.9
		c-1.041,0.44-1.88,1.041-2.52,1.8c-0.641,0.762-0.96,1.701-0.96,2.82v2.28h4.56v3.6h-2.28c-0.642,0-1.182,0.24-1.62,0.72
		c-0.441,0.48-0.66,1.041-0.66,1.681v27.6h-4.44v-26.64c0-1.681,0.439-2.959,1.32-3.841c0.399-0.398,0.879-0.72,1.44-0.96h-2.76
		v-4.439c0-1.92,0.439-3.499,1.32-4.74c0.879-1.239,2.04-2.199,3.48-2.88c1.44-0.679,3.04-1.159,4.8-1.44
		c1.759-0.279,3.519-0.42,5.28-0.42c1.759,0,3.52,0.141,5.28,0.42c1.759,0.281,3.36,0.762,4.8,1.44c1.44,0.681,2.62,1.641,3.54,2.88
		c0.919,1.241,1.38,2.82,1.38,4.74v35.88H104.872z"/>
	<path d="M139.192,934.067v-35.88c0-1.2-0.281-2.179-0.84-2.94c-0.561-0.759-1.281-1.359-2.16-1.8
		c-0.881-0.438-1.841-0.759-2.88-0.96c-1.041-0.198-2.082-0.3-3.12-0.3c-1.041,0-2.1,0.102-3.18,0.3c-1.08,0.201-2.081,0.521-3,0.96
		c-0.92,0.44-1.661,1.041-2.22,1.8c-0.561,0.762-0.84,1.74-0.84,2.94h-4.2c0-1.92,0.379-3.499,1.14-4.74
		c0.759-1.239,1.759-2.199,3-2.88c1.239-0.679,2.659-1.159,4.26-1.44c1.6-0.279,3.279-0.42,5.04-0.42c1.759,0,3.439,0.141,5.04,0.42
		c1.6,0.281,3.019,0.762,4.26,1.44c1.24,0.681,2.239,1.641,3,2.88c0.76,1.241,1.14,2.82,1.14,4.74v35.88H139.192z"/>
	<path d="M181.67,893.147c-2.48,0.24-4.44,0.341-5.88,0.3c-1.44-0.039-2.741-0.12-3.9-0.24c-1.161-0.12-2.4-0.259-3.72-0.42
		c-1.32-0.159-3.06-0.239-5.22-0.239c-1.601,0-2.801,0.359-3.6,1.079c-0.801,0.721-1.32,1.641-1.56,2.761
		c-0.24,0.72-0.36,1.4-0.36,2.04v0.84l17.28,2.16c1.839,0.239,3.24,0.779,4.2,1.62c0.96,0.84,1.44,2.18,1.44,4.02v20.64
		c0,2.001-0.66,3.642-1.98,4.92c-1.32,1.281-2.901,1.921-4.74,1.921c-1.841,0-3.42-0.68-4.74-2.04
		c-1.32-1.359-1.98-2.959-1.98-4.801c0-1.839,0.66-3.42,1.98-4.739c1.32-1.32,2.898-1.98,4.74-1.98c0.159,0,0.64,0.081,1.44,0.24
		l0.72,0.24v-14.4c0-0.879-0.36-1.398-1.08-1.56l-21.72-2.761c0-0.318,0-0.639,0-0.96c0-0.318,0.04-0.679,0.12-1.08
		c0.079-0.639,0.139-1.339,0.18-2.1c0.039-0.76,0.139-1.579,0.3-2.46c0.399-2.319,1.419-4.14,3.06-5.46
		c1.639-1.32,3.9-1.98,6.78-1.98c2.64,0,4.62,0.081,5.94,0.24c1.32,0.161,2.46,0.3,3.42,0.42s1.959,0.181,3,0.181
		c1.039,0,2.599-0.12,4.68-0.36L181.67,893.147z M176.99,927.707c0-0.879-0.341-1.639-1.02-2.279c-0.681-0.64-1.46-0.96-2.34-0.96
		c-0.96,0-1.761,0.32-2.4,0.96c-0.641,0.641-0.96,1.4-0.96,2.279c0,0.96,0.319,1.781,0.96,2.46c0.639,0.681,1.44,1.021,2.4,1.021
		c0.879,0,1.659-0.34,2.34-1.021C176.649,929.488,176.99,928.667,176.99,927.707z"/>
	<path d="M220.669,934.067v-39.96c0-0.799-0.401-1.2-1.2-1.2h-1.8c-0.561,0-0.881,0.281-0.96,0.84l-15.48,40.32h-4.44v-32.52
		c-0.321,0.161-0.6,0.281-0.84,0.359c-0.48,0.24-0.96,0.36-1.44,0.36c-1.841,0-3.42-0.66-4.74-1.98
		c-1.32-1.319-1.98-2.898-1.98-4.739c0-1.84,0.66-3.421,1.98-4.74c1.32-1.32,2.899-1.98,4.74-1.98c1.839,0,3.42,0.621,4.74,1.86
		c1.32,1.241,1.98,2.861,1.98,4.86v27l11.28-30c0.318-0.799,0.819-1.561,1.5-2.28c0.679-0.72,1.62-1.08,2.82-1.08h3.84
		c1.2,0,2.239,0.44,3.12,1.32c0.879,0.881,1.32,1.961,1.32,3.239v40.32H220.669z M197.87,895.548c0-0.961-0.341-1.759-1.02-2.4
		c-0.681-0.64-1.461-0.96-2.34-0.96c-0.881,0-1.662,0.32-2.34,0.96c-0.681,0.642-1.02,1.439-1.02,2.4c0,0.881,0.339,1.661,1.02,2.34
		c0.679,0.681,1.459,1.02,2.34,1.02c0.879,0,1.659-0.339,2.34-1.02C197.528,897.209,197.87,896.429,197.87,895.548z"/>
	<path d="M255.108,934.067v-35.88c0-1.2-0.281-2.179-0.84-2.94c-0.561-0.759-1.281-1.359-2.16-1.8
		c-0.881-0.438-1.841-0.759-2.88-0.96c-1.041-0.198-2.082-0.3-3.12-0.3c-1.041,0-2.1,0.102-3.18,0.3c-1.08,0.201-2.081,0.521-3,0.96
		c-0.92,0.44-1.661,1.041-2.22,1.8c-0.561,0.762-0.84,1.74-0.84,2.94h-4.2c0-1.92,0.379-3.499,1.14-4.74
		c0.759-1.239,1.759-2.199,3-2.88c1.239-0.679,2.659-1.159,4.26-1.44c1.6-0.279,3.279-0.42,5.04-0.42c1.759,0,3.439,0.141,5.04,0.42
		c1.6,0.281,3.019,0.762,4.26,1.44c1.24,0.681,2.239,1.641,3,2.88c0.76,1.241,1.14,2.82,1.14,4.74v35.88H255.108z"/>
	<path d="M296.027,928.428c0,1.601-0.561,2.939-1.68,4.02c-1.121,1.08-2.441,1.62-3.96,1.62h-12.36l-10.68-39.48l3.72-3.119
		l10.32,38.279h9c0.72,0,1.08-0.359,1.08-1.08v-27.119c-0.161,0.161-0.401,0.281-0.72,0.359c-0.48,0.24-0.96,0.36-1.44,0.36
		c-1.841,0-3.42-0.66-4.74-1.98c-1.32-1.319-1.98-2.898-1.98-4.739c0-1.84,0.66-3.421,1.98-4.74c1.32-1.32,2.899-1.98,4.74-1.98
		c1.839,0,3.42,0.621,4.74,1.86c1.32,1.241,1.98,2.861,1.98,4.86V928.428z M292.547,895.548c0-0.961-0.321-1.759-0.96-2.4
		c-0.641-0.64-1.4-0.96-2.28-0.96c-0.96,0-1.781,0.32-2.46,0.96c-0.68,0.642-1.02,1.439-1.02,2.4c0,0.881,0.339,1.661,1.02,2.34
		c0.679,0.681,1.5,1.02,2.46,1.02c0.879,0,1.639-0.339,2.28-1.02C292.226,897.209,292.547,896.429,292.547,895.548z"/>
	<path d="M339.106,934.067l-11.28-33.84l-11.16,33.84h-4.2v-32.52c-0.321,0.161-0.6,0.281-0.84,0.359
		c-0.48,0.24-0.96,0.36-1.44,0.36c-1.841,0-3.42-0.66-4.74-1.98c-1.32-1.319-1.98-2.898-1.98-4.739c0-1.921,0.66-3.52,1.98-4.801
		c1.32-1.278,2.899-1.92,4.74-1.92c1.839,0,3.42,0.621,4.74,1.86c1.32,1.241,1.98,2.861,1.98,4.86v26.52l10.92-32.88l11.04,32.88
		v-32.88h4.44v44.88H339.106z M313.546,895.548c0-0.961-0.341-1.759-1.02-2.4c-0.681-0.64-1.461-0.96-2.34-0.96
		c-0.96,0-1.761,0.32-2.4,0.96c-0.641,0.642-0.96,1.439-0.96,2.4c0,0.881,0.319,1.661,0.96,2.34c0.64,0.681,1.44,1.02,2.4,1.02
		c0.879,0,1.659-0.339,2.34-1.02C313.205,897.209,313.546,896.429,313.546,895.548z"/>
	<path d="M314.746,882.947v-3.72c0-1.519,0.42-2.898,1.26-4.141c0.84-1.239,1.941-2.259,3.3-3.06c1.361-0.799,2.88-1.419,4.56-1.86
		c1.68-0.438,3.401-0.659,5.16-0.659c1.761,0,3.48,0.221,5.16,0.659c1.68,0.441,3.201,1.062,4.56,1.86
		c1.361,0.801,2.46,1.82,3.3,3.06c0.84,1.242,1.26,2.622,1.26,4.141v3.72H314.746z M339.586,879.468c0-1.2-0.319-2.2-0.96-3
		c-0.639-0.799-1.479-1.459-2.52-1.98c-1.039-0.52-2.179-0.9-3.42-1.14c-1.239-0.24-2.46-0.36-3.66-0.36
		c-1.2,0-2.439,0.12-3.72,0.36c-1.279,0.239-2.419,0.62-3.42,1.14c-1,0.521-1.819,1.182-2.46,1.98c-0.64,0.8-0.96,1.8-0.96,3
		H339.586z"/>
	<path d="M369.106,927.707c0,1.842-0.66,3.441-1.98,4.801c-1.32,1.36-2.9,2.04-4.74,2.04c-1.841,0-3.42-0.64-4.74-1.921
		c-1.32-1.278-1.98-2.919-1.98-4.92v-38.52h4.56v32.52l0.72-0.359c0.24-0.079,0.48-0.159,0.72-0.24c0.24-0.079,0.48-0.12,0.72-0.12
		c1.839,0,3.42,0.66,4.74,1.98C368.446,924.287,369.106,925.868,369.106,927.707z M365.746,927.707c0-0.879-0.321-1.639-0.96-2.279
		c-0.641-0.64-1.44-0.96-2.4-0.96c-0.881,0-1.662,0.32-2.34,0.96c-0.681,0.641-1.02,1.4-1.02,2.279c0,0.96,0.339,1.781,1.02,2.46
		c0.679,0.681,1.459,1.021,2.34,1.021c0.96,0,1.759-0.34,2.4-1.021C365.425,929.488,365.746,928.667,365.746,927.707z"/>
	<path d="M410.505,883.667c0.159,1.602,0.099,2.94-0.18,4.021c-0.281,1.08-0.621,1.94-1.02,2.58c-0.48,0.881-1.121,1.481-1.92,1.8
		c0.559,0.401,1.039,0.881,1.44,1.44c0.399,0.479,0.739,1.101,1.02,1.859c0.279,0.762,0.42,1.701,0.42,2.82v35.88h-4.44v-35.88
		c0-1.2-0.36-2.16-1.08-2.88c-0.72-0.721-1.661-1.3-2.82-1.74c-1.161-0.438-2.4-0.738-3.72-0.9c-1.32-0.159-2.58-0.239-3.78-0.239
		s-2.48,0.08-3.84,0.239c-1.361,0.162-2.622,0.462-3.78,0.9c-1.161,0.44-2.1,1.02-2.82,1.74c-0.72,0.72-1.08,1.68-1.08,2.88v28.439
		l5.64-19.439c0.399-1.279,1.159-2.358,2.28-3.24c1.12-0.879,2.439-1.32,3.96-1.32c1.839,0,3.439,0.66,4.8,1.98
		c1.359,1.32,2.04,2.9,2.04,4.74c0,1.841-0.681,3.42-2.04,4.739c-1.361,1.32-2.961,1.98-4.8,1.98c-1.92,0-3.521-0.72-4.8-2.16
		l-6,20.16h-5.52v-35.88c0-1.759,0.499-3.259,1.5-4.5c1-1.239,2.28-2.22,3.84-2.94c1.56-0.72,3.279-1.239,5.16-1.56
		c1.879-0.319,3.699-0.48,5.46-0.48c1.6,0,2.979,0.102,4.14,0.301c1.159,0.2,2.139,0.38,2.94,0.54
		c0.399,0.161,0.799,0.281,1.2,0.359c0.399,0.081,0.76,0.201,1.08,0.36c0.64-0.399,1.159-0.919,1.56-1.561
		c0.399-0.559,0.7-1.239,0.9-2.04c0.199-0.799,0.18-1.8-0.06-3H410.505z M398.146,909.348c0-0.88-0.321-1.639-0.96-2.28
		c-0.642-0.64-1.44-0.96-2.4-0.96c-0.881,0-1.661,0.32-2.34,0.96c-0.681,0.642-1.02,1.4-1.02,2.28c0,0.96,0.339,1.781,1.02,2.46
		c0.679,0.681,1.459,1.02,2.34,1.02c0.96,0,1.759-0.339,2.4-1.02C397.825,911.129,398.146,910.308,398.146,909.348z"/>
	<path d="M462.705,904.308c-0.161,1.601-0.66,3.021-1.5,4.26c-0.84,1.241-1.74,2.301-2.7,3.18c-1.041,0.882-2.321,1.722-3.84,2.521
		v14.16c0,1.601-0.561,2.939-1.68,4.02c-1.122,1.08-2.441,1.62-3.96,1.62h-16.68c-1.521,0-2.82-0.54-3.9-1.62s-1.62-2.419-1.62-4.02
		v-26.88c-0.321,0.161-0.6,0.281-0.84,0.359c-0.48,0.24-0.96,0.36-1.44,0.36c-1.841,0-3.42-0.66-4.74-1.98
		c-1.32-1.319-1.98-2.898-1.98-4.739c0-1.84,0.66-3.421,1.98-4.74c1.32-1.32,2.899-1.98,4.74-1.98c1.839,0,3.42,0.621,4.74,1.86
		c1.32,1.241,1.98,2.861,1.98,4.86v33.119c0,0.721,0.36,1.08,1.08,1.08h16.68c0.24,0,0.48-0.078,0.72-0.239
		c0.24-0.16,0.36-0.439,0.36-0.841v-13.199l-1.44,0.359c-0.48,0.081-1.02,0.141-1.62,0.181c-0.6,0.041-1.301,0.06-2.1,0.06
		c-1.122,0-2.261-0.12-3.42-0.36c-1.161-0.239-2.22-0.618-3.18-1.14c-0.96-0.52-1.761-1.26-2.4-2.22
		c-0.642-0.96-0.96-2.16-0.96-3.601c0-1.839,0.579-3.279,1.74-4.319c1.159-1.039,2.659-1.561,4.5-1.561c1.839,0,3.339,0.48,4.5,1.44
		c1.159,0.96,1.74,2.36,1.74,4.2c0,0.641-0.102,1.241-0.3,1.8c-0.201,0.561-0.42,1.04-0.66,1.439c-0.162,0.24-0.3,0.48-0.42,0.721
		c-0.12,0.239-0.26,0.44-0.42,0.6c0.319-0.079,0.72-0.12,1.2-0.12c0.319,0,0.639,0,0.96,0c0.319,0,0.6-0.039,0.84-0.12
		c0.16-0.078,0.319-0.139,0.48-0.18c0.16-0.039,0.319-0.1,0.48-0.18l0.48-0.24v-23.04h4.56v21.24c0.64-0.319,1.32-0.841,2.04-1.561
		c0.559-0.559,1.039-1.2,1.44-1.92c0.399-0.72,0.64-1.6,0.72-2.64H462.705z M427.905,895.548c0-0.961-0.341-1.759-1.02-2.4
		c-0.681-0.64-1.461-0.96-2.34-0.96c-0.881,0-1.662,0.32-2.34,0.96c-0.681,0.642-1.02,1.439-1.02,2.4c0,0.881,0.339,1.661,1.02,2.34
		c0.679,0.681,1.459,1.02,2.34,1.02c0.879,0,1.659-0.339,2.34-1.02C427.563,897.209,427.905,896.429,427.905,895.548z
		 M444.465,908.747c0-0.879-0.321-1.639-0.96-2.279c-0.642-0.64-1.401-0.96-2.28-0.96c-0.96,0-1.74,0.32-2.34,0.96
		c-0.6,0.641-0.9,1.4-0.9,2.279c0,0.96,0.3,1.74,0.9,2.34c0.6,0.601,1.38,0.9,2.34,0.9c0.879,0,1.639-0.3,2.28-0.9
		C444.144,910.487,444.465,909.707,444.465,908.747z"/>
	<path d="M482.023,927.707c0,1.842-0.66,3.441-1.98,4.801c-1.32,1.36-2.9,2.04-4.74,2.04c-1.841,0-3.42-0.64-4.74-1.921
		c-1.32-1.278-1.98-2.919-1.98-4.92v-38.52h4.56v32.52l0.72-0.359c0.24-0.079,0.48-0.159,0.72-0.24c0.24-0.079,0.48-0.12,0.72-0.12
		c1.839,0,3.42,0.66,4.74,1.98C481.363,924.287,482.023,925.868,482.023,927.707z M478.664,927.707c0-0.879-0.321-1.639-0.96-2.279
		c-0.641-0.64-1.44-0.96-2.4-0.96c-0.881,0-1.662,0.32-2.34,0.96c-0.681,0.641-1.02,1.4-1.02,2.279c0,0.96,0.339,1.781,1.02,2.46
		c0.679,0.681,1.459,1.021,2.34,1.021c0.96,0,1.759-0.34,2.4-1.021C478.343,929.488,478.664,928.667,478.664,927.707z
		 M500.504,927.707c0,1.842-0.66,3.441-1.98,4.801c-1.32,1.36-2.9,2.04-4.74,2.04c-1.841,0-3.42-0.64-4.74-1.921
		c-1.319-1.278-1.979-2.919-1.979-4.92v-38.52h4.56v32.52l0.721-0.359c0.24-0.079,0.48-0.159,0.72-0.24
		c0.24-0.079,0.479-0.12,0.72-0.12c1.84,0,3.42,0.66,4.74,1.98C499.844,924.287,500.504,925.868,500.504,927.707z M497.144,927.707
		c0-0.879-0.321-1.639-0.96-2.279c-0.641-0.64-1.439-0.96-2.4-0.96c-0.881,0-1.661,0.32-2.34,0.96c-0.681,0.641-1.02,1.4-1.02,2.279
		c0,0.96,0.339,1.781,1.02,2.46c0.679,0.681,1.459,1.021,2.34,1.021c0.961,0,1.76-0.34,2.4-1.021
		C496.822,929.488,497.144,928.667,497.144,927.707z"/>
	<path d="M539.621,934.067v-28.68c0-1.359-0.479-2.239-1.439-2.641c-0.4-0.239-0.84-0.318-1.32-0.239c-1.121,0-1.92,0.101-2.399,0.3
		c-0.479,0.2-1.001,0.98-1.56,2.34l-12.601,28.92h-4.44v-32.52c-0.32,0.161-0.6,0.281-0.84,0.359c-0.479,0.24-0.959,0.36-1.439,0.36
		c-1.842,0-3.42-0.66-4.74-1.98c-1.32-1.319-1.98-2.898-1.98-4.739c0-1.921,0.66-3.52,1.98-4.801c1.32-1.278,2.898-1.92,4.74-1.92
		c1.84,0,3.42,0.621,4.74,1.86c1.319,1.241,1.979,2.861,1.979,4.86v28.56l9.601-21.72c0.398-0.799,0.858-1.32,1.379-1.561
		c0.52-0.24,1.061-0.359,1.621-0.359c-0.48-0.319-0.882-0.721-1.201-1.2c-0.32-0.399-0.58-0.9-0.779-1.5
		c-0.201-0.601-0.301-1.339-0.301-2.22c0-1.921,0.66-3.52,1.98-4.801c1.32-1.278,2.898-1.92,4.74-1.92c1.84,0,3.42,0.642,4.74,1.92
		c1.32,1.281,1.98,2.88,1.98,4.801c0,2-0.801,3.68-2.4,5.039c0.398,0.24,0.799,0.601,1.199,1.08c0.319,0.401,0.601,0.941,0.84,1.62
		c0.24,0.681,0.361,1.461,0.361,2.34v28.44H539.621z M516.941,895.548c0-0.961-0.341-1.759-1.02-2.4
		c-0.681-0.64-1.461-0.96-2.34-0.96c-0.961,0-1.761,0.32-2.4,0.96c-0.641,0.642-0.96,1.439-0.96,2.4c0,0.881,0.319,1.661,0.96,2.34
		c0.64,0.681,1.439,1.02,2.4,1.02c0.879,0,1.659-0.339,2.34-1.02C516.601,897.209,516.941,896.429,516.941,895.548z
		 M540.701,895.548c0-0.961-0.32-1.759-0.959-2.4c-0.642-0.64-1.44-0.96-2.4-0.96c-0.881,0-1.661,0.32-2.34,0.96
		c-0.681,0.642-1.02,1.439-1.02,2.4c0,0.881,0.339,1.661,1.02,2.34c0.679,0.681,1.459,1.02,2.34,1.02c0.96,0,1.759-0.339,2.4-1.02
		C540.381,897.209,540.701,896.429,540.701,895.548z"/>
	<path d="M539.501,880.067v-18h4.44v18H539.501z"/>
	<path d="M580.421,928.428c0,1.601-0.561,2.939-1.681,4.02c-1.121,1.08-2.44,1.62-3.959,1.62h-12.36l-10.681-39.48l3.721-3.119
		l10.32,38.279h9c0.72,0,1.08-0.359,1.08-1.08v-27.119c-0.162,0.161-0.402,0.281-0.721,0.359c-0.479,0.24-0.959,0.36-1.439,0.36
		c-1.842,0-3.42-0.66-4.74-1.98c-1.32-1.319-1.98-2.898-1.98-4.739c0-1.84,0.66-3.421,1.98-4.74c1.32-1.32,2.898-1.98,4.74-1.98
		c1.84,0,3.42,0.621,4.74,1.86c1.319,1.241,1.979,2.861,1.979,4.86V928.428z M576.941,895.548c0-0.961-0.321-1.759-0.961-2.4
		c-0.641-0.64-1.4-0.96-2.279-0.96c-0.961,0-1.781,0.32-2.461,0.96c-0.68,0.642-1.02,1.439-1.02,2.4c0,0.881,0.34,1.661,1.02,2.34
		c0.68,0.681,1.5,1.02,2.461,1.02c0.879,0,1.639-0.339,2.279-1.02C576.62,897.209,576.941,896.429,576.941,895.548z"/>
	<path d="M624.94,928.428c0,1.601-0.561,2.939-1.681,4.02c-1.121,1.08-2.441,1.62-3.959,1.62h-16.92c-1.521,0-2.82-0.54-3.9-1.62
		s-1.62-2.419-1.62-4.02v-26.88c-0.321,0.161-0.601,0.281-0.84,0.359c-0.479,0.24-0.96,0.36-1.44,0.36c-1.841,0-3.42-0.66-4.74-1.98
		c-1.319-1.319-1.979-2.898-1.979-4.739c0-1.921,0.66-3.52,1.979-4.801c1.32-1.278,2.899-1.92,4.74-1.92
		c1.84,0,3.42,0.621,4.74,1.86c1.32,1.241,1.98,2.861,1.98,4.86v33.119c0,0.721,0.359,1.08,1.08,1.08h16.92
		c0.24,0,0.479-0.078,0.72-0.239c0.239-0.16,0.36-0.439,0.36-0.841v-54.6h4.56V928.428z M597.94,895.548
		c0-0.961-0.341-1.759-1.021-2.4c-0.68-0.64-1.461-0.96-2.34-0.96c-0.96,0-1.76,0.32-2.4,0.96c-0.641,0.642-0.959,1.439-0.959,2.4
		c0,0.881,0.318,1.661,0.959,2.34c0.641,0.681,1.44,1.02,2.4,1.02c0.879,0,1.66-0.339,2.34-1.02
		C597.6,897.209,597.94,896.429,597.94,895.548z"/>
	<path d="M663.22,893.147c-2.48,0.24-4.44,0.341-5.88,0.3c-1.439-0.039-2.741-0.12-3.9-0.24c-1.16-0.12-2.4-0.259-3.72-0.42
		c-1.319-0.159-3.06-0.239-5.22-0.239c-1.602,0-2.802,0.359-3.6,1.079c-0.801,0.721-1.32,1.641-1.561,2.761
		c-0.24,0.72-0.36,1.4-0.36,2.04v0.84l17.28,2.16c1.84,0.239,3.24,0.779,4.2,1.62c0.96,0.84,1.44,2.18,1.44,4.02v20.64
		c0,2.001-0.66,3.642-1.98,4.92c-1.32,1.281-2.9,1.921-4.74,1.921c-1.842,0-3.42-0.68-4.74-2.04
		c-1.32-1.359-1.979-2.959-1.979-4.801c0-1.839,0.659-3.42,1.979-4.739c1.32-1.32,2.898-1.98,4.74-1.98
		c0.159,0,0.64,0.081,1.439,0.24l0.721,0.24v-14.4c0-0.879-0.36-1.398-1.08-1.56l-21.721-2.761c0-0.318,0-0.639,0-0.96
		c0-0.318,0.04-0.679,0.121-1.08c0.078-0.639,0.139-1.339,0.18-2.1c0.039-0.76,0.139-1.579,0.3-2.46
		c0.399-2.319,1.419-4.14,3.06-5.46c1.639-1.32,3.9-1.98,6.78-1.98c2.64,0,4.62,0.081,5.94,0.24c1.32,0.161,2.46,0.3,3.42,0.42
		s1.959,0.181,3,0.181c1.039,0,2.599-0.12,4.68-0.36L663.22,893.147z M658.539,927.707c0-0.879-0.341-1.639-1.02-2.279
		c-0.681-0.64-1.461-0.96-2.34-0.96c-0.96,0-1.761,0.32-2.4,0.96c-0.641,0.641-0.959,1.4-0.959,2.279c0,0.96,0.318,1.781,0.959,2.46
		c0.64,0.681,1.44,1.021,2.4,1.021c0.879,0,1.659-0.34,2.34-1.021C658.198,929.488,658.539,928.667,658.539,927.707z"/>
	<path d="M695.738,889.188c0,2.081-0.42,3.941-1.26,5.58c-0.84,1.641-1.961,3.041-3.36,4.2c-1.4,1.16-3.041,2.061-4.92,2.699
		c-1.88,0.642-3.86,0.96-5.94,0.96h-0.959c-0.402,0-0.84,0.021-1.32,0.061c-0.48,0.041-1.121,0.021-1.92-0.061
		c-1.842-0.078-3.42-0.759-4.74-2.04c-1.32-1.278-1.98-2.838-1.98-4.68c0-1.839,0.66-3.42,1.98-4.74
		c1.32-1.319,2.898-1.979,4.74-1.979c1.84,0,3.42,0.66,4.74,1.979c1.319,1.32,1.979,2.901,1.979,4.74c0,0.96-0.2,1.761-0.601,2.4
		c-0.32,0.479-0.521,0.84-0.6,1.08c1.359,0,2.659-0.279,3.9-0.84c1.239-0.56,2.319-1.3,3.24-2.221
		c0.918-0.919,1.659-1.998,2.22-3.24c0.559-1.239,0.84-2.538,0.84-3.899H695.738z M695.738,920.627c0,2.082-0.42,3.941-1.26,5.58
		c-0.84,1.641-1.961,3.042-3.36,4.2c-1.4,1.161-3.041,2.061-4.92,2.7c-1.88,0.642-3.86,0.96-5.94,0.96h-0.959
		c-0.402,0-0.84,0.019-1.32,0.06c-0.48,0.04-1.121,0.02-1.92-0.06c-1.842-0.079-3.42-0.76-4.74-2.04
		c-1.32-1.278-1.98-2.839-1.98-4.68c0-1.84,0.66-3.42,1.98-4.74s2.898-1.98,4.74-1.98c1.84,0,3.42,0.66,4.74,1.98
		c1.319,1.32,1.979,2.9,1.979,4.74c0,0.96-0.2,1.761-0.601,2.399c-0.32,0.48-0.521,0.84-0.6,1.08c1.359,0,2.659-0.279,3.9-0.84
		c1.239-0.559,2.319-1.299,3.24-2.22c0.918-0.919,1.659-1.999,2.22-3.24c0.559-1.239,0.84-2.539,0.84-3.9H695.738z M679.418,895.907
		c0-0.879-0.341-1.659-1.02-2.34c-0.681-0.679-1.461-1.02-2.34-1.02c-0.881,0-1.662,0.341-2.34,1.02
		c-0.682,0.681-1.021,1.461-1.021,2.34c0,0.96,0.339,1.761,1.021,2.4c0.678,0.641,1.459,0.96,2.34,0.96
		c0.879,0,1.659-0.319,2.34-0.96C679.077,897.668,679.418,896.867,679.418,895.907z M679.418,927.348c0-0.96-0.341-1.759-1.02-2.4
		c-0.681-0.64-1.461-0.96-2.34-0.96c-0.881,0-1.662,0.32-2.34,0.96c-0.682,0.642-1.021,1.44-1.021,2.4
		c0,0.881,0.339,1.661,1.021,2.34c0.678,0.681,1.459,1.02,2.34,1.02c0.879,0,1.659-0.339,2.34-1.02
		C679.077,929.009,679.418,928.229,679.418,927.348z"/>
	<path d="M720.098,927.707c0,1.842-0.66,3.441-1.98,4.801c-1.32,1.36-2.9,2.04-4.74,2.04c-1.841,0-3.42-0.64-4.74-1.921
		c-1.319-1.278-1.979-2.919-1.979-4.92v-38.52h4.56v32.52l0.721-0.359c0.24-0.079,0.48-0.159,0.72-0.24
		c0.24-0.079,0.479-0.12,0.72-0.12c1.84,0,3.42,0.66,4.74,1.98C719.438,924.287,720.098,925.868,720.098,927.707z M716.737,927.707
		c0-0.879-0.321-1.639-0.96-2.279c-0.641-0.64-1.439-0.96-2.4-0.96c-0.881,0-1.661,0.32-2.34,0.96c-0.681,0.641-1.02,1.4-1.02,2.279
		c0,0.96,0.339,1.781,1.02,2.46c0.679,0.681,1.459,1.021,2.34,1.021c0.961,0,1.76-0.34,2.4-1.021
		C716.416,929.488,716.737,928.667,716.737,927.707z"/>
	<path d="M759.336,934.067v-39.96c0-0.799-0.4-1.2-1.199-1.2h-1.801c-0.561,0-0.881,0.281-0.959,0.84l-15.48,40.32h-4.439v-32.52
		c-0.321,0.161-0.601,0.281-0.84,0.359c-0.48,0.24-0.961,0.36-1.44,0.36c-1.841,0-3.421-0.66-4.74-1.98
		c-1.319-1.319-1.979-2.898-1.979-4.739c0-1.84,0.66-3.421,1.979-4.74c1.319-1.32,2.899-1.98,4.74-1.98
		c1.839,0,3.42,0.621,4.739,1.86c1.32,1.241,1.98,2.861,1.98,4.86v27l11.28-30c0.318-0.799,0.819-1.561,1.5-2.28
		c0.679-0.72,1.62-1.08,2.819-1.08h3.84c1.201,0,2.239,0.44,3.121,1.32c0.879,0.881,1.319,1.961,1.319,3.239v40.32H759.336z
		 M736.537,895.548c0-0.961-0.342-1.759-1.021-2.4c-0.681-0.64-1.461-0.96-2.34-0.96c-0.882,0-1.661,0.32-2.341,0.96
		c-0.68,0.642-1.02,1.439-1.02,2.4c0,0.881,0.34,1.661,1.02,2.34c0.68,0.681,1.459,1.02,2.341,1.02c0.879,0,1.659-0.339,2.34-1.02
		C736.195,897.209,736.537,896.429,736.537,895.548z"/>
	<path d="M806.375,883.667c0.16,1.602,0.1,2.94-0.18,4.021c-0.281,1.08-0.621,1.94-1.02,2.58c-0.48,0.881-1.121,1.481-1.92,1.8
		c0.559,0.401,1.038,0.881,1.439,1.44c0.399,0.479,0.738,1.101,1.02,1.859c0.279,0.762,0.42,1.701,0.42,2.82v35.88h-4.439v-35.88
		c0-1.2-0.359-2.16-1.08-2.88c-0.72-0.721-1.661-1.3-2.82-1.74c-1.16-0.438-2.399-0.738-3.72-0.9
		c-1.319-0.159-2.579-0.239-3.78-0.239c-1.199,0-2.48,0.08-3.84,0.239c-1.361,0.162-2.621,0.462-3.779,0.9
		c-1.161,0.44-2.101,1.02-2.82,1.74c-0.721,0.72-1.08,1.68-1.08,2.88v28.439l5.641-19.439c0.398-1.279,1.158-2.358,2.279-3.24
		c1.119-0.879,2.439-1.32,3.96-1.32c1.839,0,3.438,0.66,4.8,1.98c1.359,1.32,2.041,2.9,2.041,4.74c0,1.841-0.682,3.42-2.041,4.739
		c-1.361,1.32-2.961,1.98-4.8,1.98c-1.92,0-3.521-0.72-4.8-2.16l-6,20.16h-5.52v-35.88c0-1.759,0.498-3.259,1.5-4.5
		c0.999-1.239,2.279-2.22,3.84-2.94c1.56-0.72,3.279-1.239,5.16-1.56c1.879-0.319,3.699-0.48,5.459-0.48
		c1.6,0,2.98,0.102,4.141,0.301c1.158,0.2,2.139,0.38,2.939,0.54c0.4,0.161,0.799,0.281,1.2,0.359c0.399,0.081,0.76,0.201,1.08,0.36
		c0.64-0.399,1.159-0.919,1.56-1.561c0.4-0.559,0.7-1.239,0.9-2.04c0.199-0.799,0.18-1.8-0.06-3H806.375z M794.016,909.348
		c0-0.88-0.32-1.639-0.96-2.28c-0.642-0.64-1.44-0.96-2.4-0.96c-0.881,0-1.661,0.32-2.34,0.96c-0.681,0.642-1.021,1.4-1.021,2.28
		c0,0.96,0.34,1.781,1.021,2.46c0.679,0.681,1.459,1.02,2.34,1.02c0.96,0,1.759-0.339,2.4-1.02
		C793.695,911.129,794.016,910.308,794.016,909.348z"/>
	<path d="M833.375,927.707c0,1.842-0.66,3.441-1.98,4.801c-1.319,1.36-2.9,2.04-4.739,2.04c-1.841,0-3.42-0.64-4.739-1.921
		c-1.32-1.278-1.98-2.919-1.98-4.92v-62.159l-7.68,4.8l-7.801-4.561l0.48-3.239l7.32,4.319l7.68-4.56c1.359,0,2.439,0.44,3.24,1.319
		c0.799,0.882,1.199,1.921,1.199,3.12v54.96l0.721-0.359c0.24-0.079,0.498-0.159,0.779-0.24c0.279-0.079,0.541-0.12,0.78-0.12
		c1.839,0,3.42,0.66,4.739,1.98C832.715,924.287,833.375,925.868,833.375,927.707z M830.016,927.707
		c0-0.879-0.342-1.639-1.021-2.279c-0.681-0.64-1.46-0.96-2.34-0.96c-0.882,0-1.661,0.32-2.34,0.96
		c-0.681,0.641-1.021,1.4-1.021,2.279c0,0.96,0.34,1.781,1.021,2.46c0.679,0.681,1.458,1.021,2.34,1.021
		c0.88,0,1.659-0.34,2.34-1.021C829.674,929.488,830.016,928.667,830.016,927.707z"/>
	<path d="M870.935,934.067v-39.96c0-0.799-0.401-1.2-1.2-1.2h-1.8c-0.561,0-0.882,0.281-0.96,0.84l-15.48,40.32h-4.44v-32.52
		c-0.32,0.161-0.6,0.281-0.84,0.359c-0.479,0.24-0.96,0.36-1.439,0.36c-1.842,0-3.42-0.66-4.74-1.98
		c-1.32-1.319-1.98-2.898-1.98-4.739c0-1.84,0.66-3.421,1.98-4.74c1.32-1.32,2.898-1.98,4.74-1.98c1.839,0,3.42,0.621,4.74,1.86
		c1.319,1.241,1.979,2.861,1.979,4.86v27l11.28-30c0.318-0.799,0.819-1.561,1.5-2.28c0.679-0.72,1.62-1.08,2.819-1.08h3.841
		c1.199,0,2.238,0.44,3.119,1.32c0.88,0.881,1.32,1.961,1.32,3.239v40.32H870.935z M848.134,895.548c0-0.961-0.341-1.759-1.02-2.4
		c-0.681-0.64-1.461-0.96-2.34-0.96c-0.882,0-1.661,0.32-2.34,0.96c-0.681,0.642-1.021,1.439-1.021,2.4
		c0,0.881,0.34,1.661,1.021,2.34c0.679,0.681,1.458,1.02,2.34,1.02c0.879,0,1.659-0.339,2.34-1.02
		C847.793,897.209,848.134,896.429,848.134,895.548z"/>
	<path d="M916.894,928.428c0,1.601-0.562,2.939-1.681,4.02c-1.121,1.08-2.441,1.62-3.96,1.62h-19.2c-1.521,0-2.819-0.54-3.899-1.62
		s-1.62-2.419-1.62-4.02v-11.04c0-1.12,0.198-2.059,0.6-2.82c0.399-0.76,0.84-1.339,1.32-1.74c0.559-0.479,1.239-0.879,2.04-1.2
		c-0.881-0.318-1.561-0.759-2.04-1.319c-0.48-0.48-0.921-1.119-1.32-1.92c-0.401-0.799-0.6-1.801-0.6-3v-9.84
		c0-1.921,0.66-3.52,1.979-4.801c1.32-1.278,2.899-1.92,4.74-1.92c1.84,0,3.42,0.66,4.74,1.98c1.32,1.319,1.979,2.9,1.979,4.74
		c0,1.841-0.659,3.44-1.979,4.8c-1.32,1.361-2.9,2-4.74,1.92c-0.561,0-1.08-0.12-1.56-0.36c-0.24-0.078-0.48-0.24-0.721-0.479v4.56
		c0,1.28,0.319,2.24,0.96,2.88c0.64,0.642,1.279,0.96,1.921,0.96h7.199v3.601h-7.199c-0.642,0-1.281,0.42-1.921,1.26
		c-0.641,0.84-0.96,1.86-0.96,3.06v10.92c0,0.321,0.04,0.582,0.12,0.78c0.079,0.201,0.399,0.3,0.96,0.3h19.2
		c0.24,0,0.499-0.078,0.78-0.239c0.279-0.16,0.42-0.439,0.42-0.841v-39.479h4.44V928.428z M896.613,895.548
		c0-0.961-0.342-1.759-1.021-2.4c-0.681-0.64-1.46-0.96-2.34-0.96c-0.881,0-1.661,0.32-2.34,0.96c-0.681,0.642-1.02,1.439-1.02,2.4
		c0,0.881,0.339,1.661,1.02,2.34c0.679,0.681,1.459,1.02,2.34,1.02c0.88,0,1.659-0.339,2.34-1.02
		C896.271,897.209,896.613,896.429,896.613,895.548z"/>
</g>
</svg>
